PathFileType	4	(X/Y/Z)	Patient4_TMGait_0pt4_03_right_43.trc.trc
DataRate	CameraRate	NumFrames	NumMarkers	Units	OrigDataRate	OrigDataStartFrame	OrigNumFrames
75.268817204301	75.268817204301	4	33	mm	75.268817204301	18	       141
Frame#	Time	Sacral			L.Shoulder			Chest			R.Shoulder			Neck			R.ASIS			L.ASIS			R.Thigh.Superior			R.Thigh.Lateral			R.Thigh.Inferior			R.Patella			L.Thigh.Superior			L.Thigh.Lateral			L.Thigh.Inferior			L.Patella			L.Shank.Superior			L.Shank.Lateral			L.Shank.Inferior			R.Shank.Superior			R.Shank.Lateral			R.Shank.Inferior			R.Heel			R.Midfoot.Superior			R.Midfoot.Lateral			R.Toe			L.Heel			L.Midfoot.Lateral			L.Midfoot.Superior			L.Toe			L.Elbow			L.Wrist			R.Elbow			R.Wrist			
		X1	Y1	Z1	X2	Y2	Z2	X3	Y3	Z3	X4	Y4	Z4	X5	Y5	Z5	X6	Y6	Z6	X7	Y7	Z7	X8	Y8	Z8	X9	Y9	Z9	X10	Y10	Z10	X11	Y11	Z11	X12	Y12	Z12	X13	Y13	Z13	X14	Y14	Z14	X15	Y15	Z15	X16	Y16	Z16	X17	Y17	Z17	X18	Y18	Z18	X19	Y19	Z19	X20	Y20	Z20	X21	Y21	Z21	X22	Y22	Z22	X23	Y23	Z23	X24	Y24	Z24	X25	Y25	Z25	X26	Y26	Z26	X27	Y27	Z27	X28	Y28	Z28	X29	Y29	Z29	X30	Y30	Z30	X31	Y31	Z31	X32	Y32	Z32	X33	Y33	Z33	

18	56.565857142857	945.696444535177	1008.692387496757	418.030503075721	1144.899658268772	1433.478728056522	239.186548503981	1232.143331691163	1366.460711470546	409.661725235410	1135.617929332126	1442.469652119928	575.792665847522	1111.664084738078	1498.180722494239	394.236307974218	1169.172158699754	947.734438673452	549.437525841598	1167.825516361833	964.625170231549	272.946515848746	1232.987654200867	761.558057866615	526.297840627701	1183.149146347128	648.218734289195	603.709292366288	1265.548430212169	601.407090170149	520.874060329718	1294.470378309560	521.667863823316	539.088363153285	1188.238436792686	742.086633281902	302.511787478393	1082.363284831446	638.265163926270	237.295675383281	1151.378066834372	550.955358826961	300.965764775818	1141.386811179867	484.921700969975	309.700773315542	1113.525612681933	415.765586101794	301.380969533783	1018.757958191509	304.352701288451	250.861989950652	1066.397244157377	191.935752798015	324.077901043250	1279.802249569149	436.934831178203	554.730814170900	1229.767842396644	325.559281327929	624.621085771030	1298.842180266567	238.390327476251	573.752083541783	1209.819493897281	48.039996608705	555.077592491208	1372.553963073028	125.589560206267	588.274897980202	1296.398312298443	49.707030756746	625.844152659248	1498.401767960061	91.251763435702	610.232740594846	936.667875186214	39.141391188953	372.181495465103	1007.271271099091	35.143565090228	288.651971451728	1091.614694318224	96.046758997437	313.496903818133	1219.216382572045	44.327793090472	280.306569848866	1169.136304121177	1087.700750147399	106.645609676108	1410.363431357345	996.196403971004	72.348278100580	999.000364823075	1125.975618524956	689.337513750846	986.133732657580	864.613936219930	698.149318754637	
19	56.579142857143	946.380479805881	1008.162488834893	419.535678552255	1145.654462074504	1433.030406988844	241.782146000620	1232.350515477326	1366.038179585305	412.514095909832	1135.218149087800	1441.956097538976	578.341791425908	1111.774090190059	1497.660677862386	396.732685230068	1169.316062384951	946.777955217268	551.752931918481	1168.841795743643	964.208675881513	275.212250277826	1232.472892176502	760.137725230219	528.190750512065	1181.403520495060	646.148281495057	603.941796750409	1264.039743246912	599.850374412377	521.282245337791	1291.932590533877	519.908905871134	538.862416486654	1187.137464415592	741.089560477838	304.721341179623	1080.312066028076	638.343633158564	238.530983534392	1147.911768715132	550.319837371467	302.482392418939	1137.315177538571	484.486554678111	310.888640061424	1109.152559850492	415.633593180872	302.333285148304	1014.104976782948	304.662124510693	251.370433904902	1061.454780850542	191.969099080674	324.420062959265	1276.691292742883	434.531048118050	554.038407165882	1225.194298248255	323.229704362491	622.705219966259	1293.729762641891	235.905685683233	571.654904175138	1203.458193374498	46.744606773632	551.014548751025	1366.200754103915	122.737881091011	585.869179092167	1289.207893084038	47.815983290319	622.668038754616	1491.496985000758	87.652979270374	608.984540105661	931.290771315078	39.198283697559	372.154635356704	1001.885310357748	35.181260758824	288.624393760482	1086.270025863864	96.082958645687	313.509407395480	1213.825493653448	44.328915665481	280.297435374584	1169.172803686505	1087.309001976690	109.042418555730	1410.944785896147	997.976390070202	74.059776034094	996.800313033984	1126.259969190940	690.958246174140	982.833054427752	864.858373294758	699.082884222884	
20	56.592428571429	947.263455767948	1007.450746880126	421.295043879443	1146.217171608367	1432.552295400857	244.611524101819	1232.451738489427	1365.661452653388	415.582357458895	1134.632735211262	1441.341023506810	581.132210346384	1111.686889721439	1497.064760414734	399.470801158538	1169.802041653661	945.751379796089	554.170314476528	1170.047381262840	963.788823329587	277.587531337974	1232.900333197270	758.986372225758	529.983158562233	1180.441397740145	644.077925964975	603.850871890224	1263.593906374028	598.488907447429	521.633574698738	1290.193342610426	517.885165416158	538.420604667465	1186.136819801383	740.015165546181	306.937020354926	1078.309993867169	638.400862127207	239.842935788573	1144.526078460112	549.649633022689	304.013807400097	1133.366905367161	483.999872178179	312.107774915012	1104.844067608178	415.470911611728	303.337253912776	1009.463317035246	304.984154937356	251.938507045820	1056.526048128316	191.977170524794	324.775434531142	1273.709591534559	431.678171954971	553.045916460863	1219.970244676708	320.999111460543	620.727032249344	1286.919309297571	232.909265255504	569.378689842088	1193.611443113959	45.962417887050	547.409607942055	1357.004709764586	119.088842959475	583.157364663006	1278.765702887301	45.891723930742	619.667735036522	1481.558720333257	82.320946984753	607.093178221862	925.907738860366	39.207289890124	372.137041911777	996.493156546245	35.201157816663	288.602756839935	1080.910018972481	96.124728067421	313.530201877800	1208.425588460146	44.352159447027	280.288559105929	1169.012913541163	1086.891539911493	111.627586317571	1411.077936588875	998.944432633289	76.043262502330	995.329539943694	1125.956108501419	692.782942256775	981.128147649409	864.457499071073	700.151381652115	
21	56.605714285714	948.337121115817	1006.569371744764	423.295012681878	1146.598803016524	1432.042722355242	247.676776285820	1232.471259474261	1365.323817638334	418.863425511868	1133.899069314438	1440.615930944795	584.170894768370	1111.425689389210	1496.392554118009	402.457157736460	1170.644830250549	944.655232111112	556.653887406403	1171.450992956682	963.379785767998	280.034194137762	1234.141421759307	757.945138760699	531.683457313418	1180.063581148848	641.995777723348	603.515525273910	1263.954153249816	597.198563394555	521.963035094999	1289.013581644909	515.573709010912	537.770079269513	1185.260119982647	738.865050028232	309.085551297296	1076.366996645487	638.424383416269	241.226945934993	1141.265721153724	548.938176966162	305.537017264860	1129.607499538008	483.439009097329	313.346708772485	1100.654515783540	415.254186679598	304.387856110675	1004.854066437438	305.309803323483	252.583388427170	1051.616379107074	191.936754804793	325.146793352290	1270.831596154383	428.464726849388	551.828074459269	1214.400310008065	318.819960440389	618.837954626993	1278.948025482288	229.512576155284	567.038600434507	1181.326939427858	45.453869376208	544.466228951822	1345.834489330287	114.957207827268	580.253225034342	1266.173442692981	43.980556947568	617.006244389139	1469.615494730241	75.959328587517	604.628172538543	920.515854454319	39.146020720551	372.131958725701	991.095146231970	35.189413173168	288.592551844267	1075.531130281873	96.164771757494	313.565905100923	1203.021928398719	44.393068534307	280.280366596056	1168.640591526945	1086.441980875930	114.395870905913	1410.772968193866	999.119004394378	78.305584513833	994.568301576079	1125.069113440344	694.826009042475	980.981607681494	863.428232399993	701.390854873545	
